# xmcd CD database file
#
# Track frame offsets:
#	150
#	17909
#	38768
#	55410
#	73680
#	94389
#	112879
#	130372
#	148914
#	167071
#	184179
#	201188
#	216101
#	234658
#	252201
#	267788
#	282125
#	300331
#	318473
#	332885
#
# Disc length: 4796 seconds
#
# Revision: 2
# Processed by: cddbd v1.5.2PL0 Copyright (c) Steve Scherf et al.
# Submitted via: CDex 1.70beta2
#
DISCID=2f12ba14
DTITLE=Various Artist - Bravo Black Hits Vol. 19 CD1
DYEAR=2008
DGENRE=R and B
TTITLE0=Ne-Yo - Closer
TTITLE1=Chris Brown - Forever
TTITLE2=The Pussycat Dolls - When I grow up
TTITLE3=Madcon - Back on the road
TTITLE4=Lady Gaga - Just dance
TTITLE5=Lil Wayne Feat. T-Pain - Got money
TTITLE6=Flo Rida Feat. Timbaland - Elevator
TTITLE7=Snoop Doog - Sensual seduction
TTITLE8=Sean Kingston - Take you there
TTITLE9=Sido - Carmen
TTITLE10=Akon - I can't wait
TTITLE11=50 Cent Feat. Robin Thicke - Follow my lead
TTITLE12=LL Cool J - Baby
TTITLE13=G-Unit Feat. Young Buck - I like the way she do it
TTITLE14=N.E.R.D. - Everyone nose
TTITLE15=Soulja Boy Tell'em - Yahhh!
TTITLE16=Nelly Feat. Fergie - Party People
TTITLE17=Ryan Leslie Feat. Cassie and Fabolous - Addiction
TTITLE18=Alicia Keys - Teenage love affair
TTITLE19=Michael Jackson - Thriller
EXTD=YEAR: 2008
EXTT0=
EXTT1=
EXTT2=
EXTT3=
EXTT4=
EXTT5=
EXTT6=
EXTT7=
EXTT8=
EXTT9=
EXTT10=
EXTT11=
EXTT12=
EXTT13=
EXTT14=
EXTT15=
EXTT16=
EXTT17=
EXTT18=
EXTT19=
PLAYORDER=
